<svg xmlns="http://www.w3.org/2000/svg" viewBox="0 0 96 48" role="img" aria-labelledby="title">
  <title id="title">PayPal</title>
  <rect width="96" height="48" rx="8" fill="#fff"/>
  <path d="M17 7h14c9 0 14 5 12 13-2 9-8 13-17 13h-4l-2 8H10zm7 8-2 10h5c4 0 7-2 8-6 1-3-1-4-5-4z" fill="#003087"/>
  <path d="M27 14h13c7 0 11 4 9 11-2 8-7 12-15 12h-4l-1 4h-8l5-22c1-3 1-4 1-5z" fill="#009cde" fill-opacity=".82"/>
  <text x="51" y="29" fill="#003087" font-family="Arial,sans-serif" font-size="13" font-weight="700">PayPal</text>
</svg>
